<svg width="16" height="17" viewBox="0 0 16 17" fill="none" xmlns="http://www.w3.org/2000/svg">
<g id=".right-icon">
<path id="Vector" d="M5.52 0.859C5.55047 0.755329 5.61371 0.664319 5.70024 0.5996C5.78677 0.534881 5.89194 0.499937 6 0.5H10C10.0792 0.50006 10.1572 0.518926 10.2277 0.555044C10.2982 0.591163 10.359 0.643501 10.4053 0.70775C10.4516 0.771999 10.482 0.846322 10.4939 0.924601C10.5058 1.00288 10.499 1.08287 10.474 1.158L8.694 6.5H12.5C12.5936 6.49994 12.6854 6.52616 12.7649 6.5757C12.8443 6.62523 12.9083 6.69608 12.9494 6.78019C12.9906 6.86429 13.0073 6.95825 12.9977 7.05139C12.9881 7.14453 12.9525 7.23309 12.895 7.307L5.895 16.307C5.82329 16.3996 5.72132 16.4642 5.6069 16.4893C5.49247 16.5144 5.37286 16.4986 5.26892 16.4446C5.16498 16.3905 5.08332 16.3017 5.03819 16.1935C4.99306 16.0854 4.98733 15.9649 5.022 15.853L6.823 10H3.5C3.42226 10 3.34559 9.98197 3.27606 9.9472C3.20654 9.91243 3.14608 9.86192 3.09948 9.7997C3.05289 9.73748 3.02144 9.66525 3.00765 9.58875C2.99385 9.51225 2.99808 9.43358 3.02 9.359L5.52 0.859Z" fill="white"/>
</g>
</svg>
