<svg width="24" height="25" viewBox="0 0 24 25" fill="none" xmlns="http://www.w3.org/2000/svg">
<g id="FiCheckSquare">
<path id="Vector (Stroke)" fill-rule="evenodd" clip-rule="evenodd" d="M22.7071 3.45317C23.0976 3.8437 23.0976 4.47686 22.7071 4.86739L12.7071 14.8674C12.3166 15.2579 11.6834 15.2579 11.2929 14.8674L8.29289 11.8674C7.90237 11.4769 7.90237 10.8437 8.29289 10.4532C8.68342 10.0626 9.31658 10.0626 9.70711 10.4532L12 12.7461L21.2929 3.45317C21.6834 3.06265 22.3166 3.06265 22.7071 3.45317Z" fill="#55C274"/>
<path id="Vector (Stroke)_2" fill-rule="evenodd" clip-rule="evenodd" d="M5 4.16028C4.73478 4.16028 4.48043 4.26564 4.29289 4.45317C4.10536 4.64071 4 4.89506 4 5.16028V19.1603C4 19.4255 4.10536 19.6798 4.29289 19.8674C4.48043 20.0549 4.73478 20.1603 5 20.1603H19C19.2652 20.1603 19.5196 20.0549 19.7071 19.8674C19.8946 19.6798 20 19.4255 20 19.1603V12.1603C20 11.608 20.4477 11.1603 21 11.1603C21.5523 11.1603 22 11.608 22 12.1603V19.1603C22 19.9559 21.6839 20.719 21.1213 21.2816C20.5587 21.8442 19.7957 22.1603 19 22.1603H5C4.20435 22.1603 3.44129 21.8442 2.87868 21.2816C2.31607 20.719 2 19.9559 2 19.1603V5.16028C2 4.36463 2.31607 3.60157 2.87868 3.03896C3.44129 2.47635 4.20435 2.16028 5 2.16028H16C16.5523 2.16028 17 2.60799 17 3.16028C17 3.71256 16.5523 4.16028 16 4.16028H5Z" fill="#55C274"/>
</g>
</svg>
