<svg width="24" height="25" viewBox="0 0 24 25" fill="none" xmlns="http://www.w3.org/2000/svg">
<g id="FiX">
<path id="Vector (Stroke)" fill-rule="evenodd" clip-rule="evenodd" d="M18.7071 5.45317C19.0976 5.8437 19.0976 6.47686 18.7071 6.86739L6.70711 18.8674C6.31658 19.2579 5.68342 19.2579 5.29289 18.8674C4.90237 18.4769 4.90237 17.8437 5.29289 17.4532L17.2929 5.45317C17.6834 5.06265 18.3166 5.06265 18.7071 5.45317Z" fill="#FF3030"/>
<path id="Vector (Stroke)_2" fill-rule="evenodd" clip-rule="evenodd" d="M5.29289 5.45317C5.68342 5.06265 6.31658 5.06265 6.70711 5.45317L18.7071 17.4532C19.0976 17.8437 19.0976 18.4769 18.7071 18.8674C18.3166 19.2579 17.6834 19.2579 17.2929 18.8674L5.29289 6.86739C4.90237 6.47686 4.90237 5.8437 5.29289 5.45317Z" fill="#FF3030"/>
</g>
</svg>
