<svg width="24" height="25" viewBox="0 0 24 25" fill="none" xmlns="http://www.w3.org/2000/svg">
<g id="FiXSquare">
<path id="Vector (Stroke)" fill-rule="evenodd" clip-rule="evenodd" d="M5 4.16028C4.44772 4.16028 4 4.60799 4 5.16028V19.1603C4 19.7126 4.44772 20.1603 5 20.1603H19C19.5523 20.1603 20 19.7126 20 19.1603V5.16028C20 4.60799 19.5523 4.16028 19 4.16028H5ZM2 5.16028C2 3.50342 3.34315 2.16028 5 2.16028H19C20.6569 2.16028 22 3.50342 22 5.16028V19.1603C22 20.8171 20.6569 22.1603 19 22.1603H5C3.34315 22.1603 2 20.8171 2 19.1603V5.16028Z" fill="#FF3030"/>
<path id="Vector (Stroke)_2" fill-rule="evenodd" clip-rule="evenodd" d="M8.29289 8.45317C8.68342 8.06265 9.31658 8.06265 9.70711 8.45317L15.7071 14.4532C16.0976 14.8437 16.0976 15.4769 15.7071 15.8674C15.3166 16.2579 14.6834 16.2579 14.2929 15.8674L8.29289 9.86739C7.90237 9.47686 7.90237 8.8437 8.29289 8.45317Z" fill="#FF3030"/>
<path id="Vector (Stroke)_3" fill-rule="evenodd" clip-rule="evenodd" d="M15.7071 8.45317C16.0976 8.8437 16.0976 9.47686 15.7071 9.86739L9.70711 15.8674C9.31658 16.2579 8.68342 16.2579 8.29289 15.8674C7.90237 15.4769 7.90237 14.8437 8.29289 14.4532L14.2929 8.45317C14.6834 8.06265 15.3166 8.06265 15.7071 8.45317Z" fill="#FF3030"/>
</g>
</svg>
