<svg width="48" height="48" viewBox="0 0 48 48" fill="none" xmlns="http://www.w3.org/2000/svg">
<path d="M20.28 12.5385C20.3257 12.383 20.4205 12.2465 20.5503 12.1494C20.6801 12.0523 20.8379 11.9999 21 12H27C27.1187 12.0001 27.2358 12.0284 27.3415 12.0826C27.4472 12.1367 27.5385 12.2153 27.6079 12.3116C27.6774 12.408 27.7229 12.5195 27.7408 12.6369C27.7587 12.7543 27.7485 12.8743 27.711 12.987L25.041 21H30.75C30.8904 20.9999 31.0281 21.0392 31.1472 21.1135C31.2664 21.1878 31.3624 21.2941 31.4241 21.4203C31.4859 21.5464 31.5109 21.6874 31.4965 21.8271C31.4821 21.9668 31.4287 22.0996 31.3425 22.2105L20.8425 35.7105C20.7349 35.8495 20.5819 35.9462 20.4103 35.984C20.2387 36.0217 20.0592 35.9979 19.9033 35.9168C19.7474 35.8357 19.6249 35.7025 19.5572 35.5403C19.4895 35.3782 19.481 35.1974 19.533 35.0295L22.2345 26.25H17.25C17.1333 26.2501 17.0183 26.2229 16.914 26.1708C16.8098 26.1186 16.7191 26.0429 16.6492 25.9496C16.5793 25.8562 16.5321 25.7479 16.5114 25.6331C16.4907 25.5184 16.4971 25.4004 16.53 25.2885L20.28 12.5385Z" fill="#11C543"/>
<path d="M48 24C48 37.2548 37.2548 48 24 48C10.7452 48 0 37.2548 0 24C0 10.7452 10.7452 0 24 0C37.2548 0 48 10.7452 48 24ZM4.8 24C4.8 34.6039 13.3961 43.2 24 43.2C34.6039 43.2 43.2 34.6039 43.2 24C43.2 13.3961 34.6039 4.8 24 4.8C13.3961 4.8 4.8 13.3961 4.8 24Z" fill="#E2E8F0"/>
<path d="M24 0.999999C24 0.447714 24.448 -0.00217469 24.9998 0.0208268C29.396 0.20408 33.6645 1.59305 37.3337 4.04473C41.2805 6.68188 44.3566 10.4302 46.1731 14.8156C47.9896 19.201 48.4649 24.0266 47.5388 28.6822C46.6128 33.3377 44.327 37.6141 40.9706 40.9706C37.6141 44.327 33.3377 46.6128 28.6822 47.5388C24.0266 48.4649 19.201 47.9896 14.8156 46.1731C10.4302 44.3566 6.68188 41.2805 4.04473 37.3337C1.59305 33.6645 0.20408 29.396 0.0208268 24.9998C-0.00217469 24.448 0.447715 24 1 24L3.8 24C4.35228 24 4.79728 24.4481 4.82603 24.9996C5.00567 28.446 6.1116 31.7872 8.03578 34.6669C10.1455 37.8244 13.1441 40.2853 16.6525 41.7385C20.1608 43.1917 24.0213 43.5719 27.7457 42.8311C31.4702 42.0902 34.8913 40.2616 37.5765 37.5765C40.2616 34.8913 42.0902 31.4702 42.8311 27.7457C43.5719 24.0213 43.1917 20.1608 41.7385 16.6525C40.2853 13.1441 37.8244 10.1455 34.6669 8.03578C31.7872 6.1116 28.446 5.00567 24.9996 4.82603C24.4481 4.79728 24 4.35228 24 3.8L24 0.999999Z" fill="#55C274"/>
</svg>
