<svg width="48" height="48" viewBox="0 0 48 48" fill="none" xmlns="http://www.w3.org/2000/svg">
<path d="M20.28 12.5385C20.3257 12.383 20.4205 12.2465 20.5503 12.1494C20.6801 12.0523 20.8379 11.9999 21 12H27C27.1187 12.0001 27.2358 12.0284 27.3415 12.0826C27.4472 12.1367 27.5385 12.2153 27.6079 12.3116C27.6774 12.408 27.7229 12.5195 27.7408 12.6369C27.7587 12.7543 27.7485 12.8743 27.711 12.987L25.041 21H30.75C30.8904 20.9999 31.0281 21.0392 31.1472 21.1135C31.2664 21.1878 31.3624 21.2941 31.4241 21.4203C31.4859 21.5464 31.5109 21.6874 31.4965 21.8271C31.4821 21.9668 31.4287 22.0996 31.3425 22.2105L20.8425 35.7105C20.7349 35.8495 20.5819 35.9462 20.4103 35.984C20.2387 36.0217 20.0592 35.9979 19.9033 35.9168C19.7474 35.8357 19.6249 35.7025 19.5572 35.5403C19.4895 35.3782 19.481 35.1974 19.533 35.0295L22.2345 26.25H17.25C17.1333 26.2501 17.0183 26.2229 16.914 26.1708C16.8098 26.1186 16.7191 26.0429 16.6492 25.9496C16.5793 25.8562 16.5321 25.7479 16.5114 25.6331C16.4907 25.5184 16.4971 25.4004 16.53 25.2885L20.28 12.5385Z" fill="#11C543"/>
<path d="M48 24C48 37.2548 37.2548 48 24 48C10.7452 48 0 37.2548 0 24C0 10.7452 10.7452 0 24 0C37.2548 0 48 10.7452 48 24ZM4.8 24C4.8 34.6039 13.3961 43.2 24 43.2C34.6039 43.2 43.2 34.6039 43.2 24C43.2 13.3961 34.6039 4.8 24 4.8C13.3961 4.8 4.8 13.3961 4.8 24Z" fill="#E2E8F0"/>
<path d="M24 0.999999C24 0.447714 24.4479 -0.00217476 24.9997 0.0208303C27.8102 0.137999 30.5809 0.748465 33.1844 1.82689C36.0962 3.033 38.742 4.80083 40.9706 7.02944C43.1992 9.25805 44.967 11.9038 46.1731 14.8156C47.2515 17.4192 47.862 20.1898 47.9792 23.0003C48.0022 23.5521 47.5523 24 47 24L44.2 24C43.6477 24 43.2027 23.552 43.174 23.0004C43.0603 20.8206 42.5757 18.6736 41.7385 16.6525C40.7736 14.323 39.3593 12.2064 37.5765 10.4236C35.7936 8.64067 33.677 7.2264 31.3475 6.26151C29.3264 5.42434 27.1794 4.93967 24.9996 4.82603C24.448 4.79728 24 4.35228 24 3.8L24 0.999999Z" fill="#55C274"/>
</svg>
